font.ufo
<glyph name="four" format="2">
	<unicode hex="0034"/>
	<advance width="600"/>
	<outline>
		<contour>
			<point x="361" y="0" type="line"/>
			<point x="454" y="0" type="line"/>
			<point x="454" y="638" type="line"/>
			<point x="343" y="638" type="line"/>
			<point x="38" y="237" type="line"/>
			<point x="38" y="170" type="line"/>
			<point x="549" y="170" type="line"/>
			<point x="549" y="248" type="line"/>
			<point x="142" y="248" type="line"/>
			<point x="295" y="445" type="line"/>
			<point x="317" y="477"/>
			<point x="341" y="509"/>
			<point x="361" y="542" type="curve"/>
			<point x="366" y="542" type="line"/>
			<point x="364" y="505"/>
			<point x="362" y="458"/>
			<point x="361" y="422" type="curve"/>
		</contour>
	</outline>
</glyph>
<glyph name="eight" format="2">
	<unicode hex="0038"/>
	<advance width="600"/>
	<outline>
		<contour>
			<point x="302" y="-12" type="curve" smooth="yes"/>
			<point x="450" y="-12"/>
			<point x="534" y="63"/>
			<point x="534" y="160" type="curve" smooth="yes"/>
			<point x="534" y="249"/>
			<point x="479" y="291"/>
			<point x="410" y="325" type="curve"/>
			<point x="410" y="329" type="line"/>
			<point x="462" y="365"/>
			<point x="506" y="418"/>
			<point x="506" y="478" type="curve" smooth="yes"/>
			<point x="506" y="579"/>
			<point x="430" y="649"/>
			<point x="305" y="649" type="curve" smooth="yes"/>
			<point x="188" y="649"/>
			<point x="103" y="583"/>
			<point x="103" y="482" type="curve" smooth="yes"/>
			<point x="103" y="415"/>
			<point x="146" y="367"/>
			<point x="199" y="333" type="curve"/>
			<point x="199" y="329" type="line"/>
			<point x="131" y="297"/>
			<point x="66" y="248"/>
			<point x="66" y="163" type="curve" smooth="yes"/>
			<point x="66" y="61"/>
			<point x="157" y="-12"/>
		</contour>
		<contour>
			<point x="350" y="353" type="curve"/>
			<point x="260" y="382"/>
			<point x="192" y="413"/>
			<point x="192" y="482" type="curve" smooth="yes"/>
			<point x="192" y="541"/>
			<point x="238" y="577"/>
			<point x="303" y="577" type="curve" smooth="yes"/>
			<point x="379" y="577"/>
			<point x="421" y="532"/>
			<point x="421" y="472" type="curve" smooth="yes"/>
			<point x="421" y="429"/>
			<point x="397" y="390"/>
		</contour>
		<contour>
			<point x="304" y="60" type="curve" smooth="yes"/>
			<point x="214" y="60"/>
			<point x="155" y="106"/>
			<point x="155" y="173" type="curve" smooth="yes"/>
			<point x="155" y="231"/>
			<point x="196" y="271"/>
			<point x="252" y="302" type="curve"/>
			<point x="358" y="265"/>
			<point x="440" y="244"/>
			<point x="440" y="163" type="curve" smooth="yes"/>
			<point x="440" y="100"/>
			<point x="389" y="60"/>
		</contour>
	</outline>
</glyph>
<glyph name="question" format="2">
	<unicode hex="003F"/>
	<advance width="600"/>
	<outline>
		<contour>
			<point x="236" y="238" type="curve"/>
			<point x="323" y="238" type="line"/>
			<point x="307" y="364"/>
			<point x="483" y="389"/>
			<point x="483" y="524" type="curve" smooth="yes"/>
			<point x="483" y="623"/>
			<point x="405" y="682"/>
			<point x="293" y="682" type="curve" smooth="yes"/>
			<point x="215" y="682"/>
			<point x="152" y="647"/>
			<point x="106" y="598" type="curve"/>
			<point x="163" y="546" type="line"/>
			<point x="198" y="579"/>
			<point x="238" y="601"/>
			<point x="286" y="601" type="curve" smooth="yes"/>
			<point x="351" y="601"/>
			<point x="387" y="564"/>
			<point x="387" y="513" type="curve" smooth="yes"/>
			<point x="387" y="418"/>
			<point x="213" y="379"/>
		</contour>
		<contour>
			<point x="286" y="-12" type="curve" smooth="yes"/>
			<point x="330" y="-12"/>
			<point x="366" y="21"/>
			<point x="366" y="72" type="curve" smooth="yes"/>
			<point x="366" y="122"/>
			<point x="330" y="155"/>
			<point x="286" y="155" type="curve" smooth="yes"/>
			<point x="242" y="155"/>
			<point x="206" y="122"/>
			<point x="206" y="72" type="curve" smooth="yes"/>
			<point x="206" y="21"/>
			<point x="242" y="-12"/>
		</contour>
	</outline>
</glyph>
<glyph name="B" format="2">
	<unicode hex="0042"/>
	<advance width="600"/>
	<outline>
		<contour>
			<point x="92" y="0" type="line"/>
			<point x="303" y="0" type="line" smooth="yes"/>
			<point x="449" y="0"/>
			<point x="551" y="62"/>
			<point x="551" y="192" type="curve" smooth="yes"/>
			<point x="551" y="281"/>
			<point x="497" y="333"/>
			<point x="402" y="348" type="curve"/>
			<point x="402" y="352" type="line"/>
			<point x="479" y="372"/>
			<point x="516" y="431"/>
			<point x="516" y="495" type="curve" smooth="yes"/>
			<point x="516" y="612"/>
			<point x="421" y="655"/>
			<point x="287" y="655" type="curve" smooth="yes"/>
			<point x="92" y="655" type="line"/>
		</contour>
		<contour>
			<point x="192" y="383" type="line"/>
			<point x="192" y="573" type="line"/>
			<point x="278" y="573" type="line" smooth="yes"/>
			<point x="371" y="573"/>
			<point x="418" y="549"/>
			<point x="418" y="484" type="curve" smooth="yes"/>
			<point x="418" y="417"/>
			<point x="376" y="383"/>
			<point x="275" y="383" type="curve" smooth="yes"/>
		</contour>
		<contour>
			<point x="192" y="82" type="line"/>
			<point x="192" y="303" type="line"/>
			<point x="291" y="303" type="line" smooth="yes"/>
			<point x="397" y="303"/>
			<point x="453" y="273"/>
			<point x="453" y="198" type="curve" smooth="yes"/>
			<point x="453" y="117"/>
			<point x="395" y="82"/>
			<point x="291" y="82" type="curve" smooth="yes"/>
		</contour>
	</outline>
	<anchor name="aboveUC" x="303" y="675"/>
	<anchor name="belowLC" x="308" y="-20"/>
</glyph>
<glyph name="F" format="2">
	<unicode hex="0046"/>
	<advance width="600"/>
	<outline>
		<contour>
			<point x="126" y="0" type="line"/>
			<point x="226" y="0" type="line"/>
			<point x="226" y="283" type="line"/>
			<point x="489" y="283" type="line"/>
			<point x="489" y="368" type="line"/>
			<point x="226" y="368" type="line"/>
			<point x="226" y="571" type="line"/>
			<point x="536" y="571" type="line"/>
			<point x="536" y="655" type="line"/>
			<point x="126" y="655" type="line"/>
		</contour>
	</outline>
	<anchor name="aboveUC" x="340" y="675"/>
	<anchor name="baseLC" x="172" y="0"/>
	<anchor name="belowLC" x="181" y="-20"/>
</glyph>
<glyph name="I" format="2">
	<unicode hex="0049"/>
	<advance width="600"/>
	<outline>
		<contour>
			<point x="90" y="0" type="line"/>
			<point x="510" y="0" type="line"/>
			<point x="510" y="84" type="line"/>
			<point x="350" y="84" type="line"/>
			<point x="350" y="571" type="line"/>
			<point x="510" y="571" type="line"/>
			<point x="510" y="655" type="line"/>
			<point x="90" y="655" type="line"/>
			<point x="90" y="571" type="line"/>
			<point x="250" y="571" type="line"/>
			<point x="250" y="84" type="line"/>
			<point x="90" y="84" type="line"/>
		</contour>
	</outline>
	<anchor name="aboveUC" x="300" y="675"/>
	<anchor name="baseLC" x="300" y="0"/>
	<anchor name="belowLC" x="300" y="-20"/>
	<anchor name="ogonekUC" x="300" y="0"/>
</glyph>
<glyph name="L" format="2">
	<unicode hex="004C"/>
	<advance width="600"/>
	<outline>
		<contour>
			<point x="127" y="0" type="line"/>
			<point x="541" y="0" type="line"/>
			<point x="541" y="84" type="line"/>
			<point x="226" y="84" type="line"/>
			<point x="226" y="655" type="line"/>
			<point x="127" y="655" type="line"/>
		</contour>
	</outline>
	<anchor name="aboveUC" x="190" y="675"/>
	<anchor name="baseLC" x="345" y="0"/>
	<anchor name="belowLC" x="345" y="-20"/>
	<anchor name="center" x="177" y="340"/>
</glyph>
<glyph name="N" format="2">
	<unicode hex="004E"/>
	<advance width="600"/>
	<outline>
		<contour>
			<point x="78" y="0" type="line"/>
			<point x="174" y="0" type="line"/>
			<point x="174" y="314" type="line" smooth="yes"/>
			<point x="174" y="384"/>
			<point x="164" y="459"/>
			<point x="160" y="527" type="curve"/>
			<point x="163" y="527" type="line"/>
			<point x="224" y="389" type="line"/>
			<point x="415" y="0" type="line"/>
			<point x="522" y="0" type="line"/>
			<point x="522" y="655" type="line"/>
			<point x="426" y="655" type="line"/>
			<point x="426" y="343" type="line" smooth="yes"/>
			<point x="426" y="272"/>
			<point x="436" y="194"/>
			<point x="440" y="128" type="curve"/>
			<point x="437" y="128" type="line"/>
			<point x="376" y="266" type="line"/>
			<point x="185" y="655" type="line"/>
			<point x="78" y="655" type="line"/>
		</contour>
	</outline>
	<anchor name="aboveUC" x="310" y="675"/>
	<anchor name="baseLC" x="471" y="0"/>
	<anchor name="belowLC" x="300" y="-20"/>
</glyph>
<glyph name="T" format="2">
	<unicode hex="0054"/>
	<advance width="600"/>
	<outline>
		<contour>
			<point x="250" y="0" type="line"/>
			<point x="350" y="0" type="line"/>
			<point x="350" y="571" type="line"/>
			<point x="561" y="571" type="line"/>
			<point x="561" y="655" type="line"/>
			<point x="39" y="655" type="line"/>
			<point x="39" y="571" type="line"/>
			<point x="250" y="571" type="line"/>
		</contour>
	</outline>
	<anchor name="aboveUC" x="300" y="675"/>
	<anchor name="baseLC" x="300" y="0"/>
	<anchor name="belowLC" x="300" y="-20"/>
</glyph>
<glyph name="asciicircum" format="2">
	<unicode hex="005E"/>
	<advance width="600"/>
	<outline>
		<contour>
			<point x="105" y="281" type="line"/>
			<point x="189" y="281" type="line"/>
			<point x="250" y="445" type="line"/>
			<point x="298" y="579" type="line"/>
			<point x="302" y="579" type="line"/>
			<point x="350" y="445" type="line"/>
			<point x="411" y="281" type="line"/>
			<point x="495" y="281" type="line"/>
			<point x="342" y="670" type="line"/>
			<point x="258" y="670" type="line"/>
		</contour>
	</outline>
</glyph>
<glyph name="e" format="2">
	<unicode hex="0065"/>
	<advance width="600"/>
	<outline>
		<contour>
			<point x="330" y="-12" type="curve" smooth="yes"/>
			<point x="405" y="-12"/>
			<point x="470" y="13"/>
			<point x="520" y="46" type="curve"/>
			<point x="485" y="109" type="line"/>
			<point x="441" y="82"/>
			<point x="397" y="66"/>
			<point x="343" y="66" type="curve" smooth="yes"/>
			<point x="238" y="66"/>
			<point x="162" y="125"/>
			<point x="162" y="245" type="curve" smooth="yes"/>
			<point x="162" y="360"/>
			<point x="232" y="423"/>
			<point x="318" y="423" type="curve" smooth="yes"/>
			<point x="401" y="423"/>
			<point x="452" y="370"/>
			<point x="452" y="265" type="curve"/>
			<point x="474" y="289" type="line"/>
			<point x="134" y="289" type="line"/>
			<point x="134" y="216" type="line"/>
			<point x="536" y="216" type="line"/>
			<point x="538" y="229"/>
			<point x="540" y="249"/>
			<point x="540" y="270" type="curve" smooth="yes"/>
			<point x="540" y="406"/>
			<point x="459" y="501"/>
			<point x="315" y="501" type="curve" smooth="yes"/>
			<point x="185" y="501"/>
			<point x="65" y="404"/>
			<point x="65" y="245" type="curve" smooth="yes"/>
			<point x="65" y="82"/>
			<point x="182" y="-12"/>
		</contour>
	</outline>
	<anchor name="aboveLC" x="315" y="509"/>
	<anchor name="baseLC" x="315" y="0"/>
	<anchor name="belowLC" x="315" y="-20"/>
	<anchor name="ogonekLC" x="403" y="0"/>
</glyph>
<glyph name="braceright" format="2">
	<unicode hex="007D"/>
	<advance width="600"/>
	<outline>
		<contour>
			<point x="100" y="-152" type="line"/>
			<point x="165" y="-152" type="line" smooth="yes"/>
			<point x="292" y="-152"/>
			<point x="350" y="-121"/>
			<point x="350" y="-16" type="curve" smooth="yes"/>
			<point x="350" y="56"/>
			<point x="341" y="104"/>
			<point x="341" y="171" type="curve" smooth="yes"/>
			<point x="341" y="209"/>
			<point x="368" y="247"/>
			<point x="484" y="248" type="curve"/>
			<point x="484" y="308" type="line"/>
			<point x="368" y="309"/>
			<point x="341" y="347"/>
			<point x="341" y="385" type="curve" smooth="yes"/>
			<point x="341" y="448"/>
			<point x="350" y="503"/>
			<point x="350" y="572" type="curve" smooth="yes"/>
			<point x="350" y="677"/>
			<point x="292" y="708"/>
			<point x="165" y="708" type="curve" smooth="yes"/>
			<point x="100" y="708" type="line"/>
			<point x="100" y="653" type="line"/>
			<point x="149" y="653" type="line" smooth="yes"/>
			<point x="246" y="653"/>
			<point x="268" y="630"/>
			<point x="268" y="567" type="curve" smooth="yes"/>
			<point x="268" y="511"/>
			<point x="262" y="452"/>
			<point x="262" y="391" type="curve" smooth="yes"/>
			<point x="262" y="324"/>
			<point x="285" y="292"/>
			<point x="355" y="280" type="curve"/>
			<point x="355" y="276" type="line"/>
			<point x="285" y="264"/>
			<point x="262" y="232"/>
			<point x="262" y="165" type="curve" smooth="yes"/>
			<point x="262" y="99"/>
			<point x="268" y="48"/>
			<point x="268" y="-11" type="curve" smooth="yes"/>
			<point x="268" y="-74"/>
			<point x="246" y="-97"/>
			<point x="149" y="-97" type="curve" smooth="yes"/>
			<point x="100" y="-97" type="line"/>
		</contour>
	</outline>
</glyph>
<glyph name="exclamdown" format="2">
	<unicode hex="00A1"/>
	<advance width="600"/>
	<outline>
		<contour>
			<point x="251" y="-181" type="line"/>
			<point x="349" y="-181" type="line"/>
			<point x="346" y="-78" type="line"/>
			<point x="333" y="250" type="line"/>
			<point x="267" y="250" type="line"/>
			<point x="254" y="-78" type="line"/>
		</contour>
		<contour>
			<point x="300" y="334" type="curve" smooth="yes"/>
			<point x="344" y="334"/>
			<point x="380" y="366"/>
			<point x="380" y="417" type="curve" smooth="yes"/>
			<point x="380" y="468"/>
			<point x="344" y="501"/>
			<point x="300" y="501" type="curve" smooth="yes"/>
			<point x="256" y="501"/>
			<point x="220" y="468"/>
			<point x="220" y="417" type="curve" smooth="yes"/>
			<point x="220" y="366"/>
			<point x="256" y="334"/>
		</contour>
	</outline>
</glyph>
<glyph name="paragraph" format="2">
	<unicode hex="00B6"/>
	<advance width="600"/>
	<outline>
		<contour>
			<point x="310" y="219" type="curve" smooth="yes"/>
			<point x="344" y="219" type="line"/>
			<point x="344" y="655" type="line"/>
			<point x="302" y="655" type="line" smooth="yes"/>
			<point x="169" y="655"/>
			<point x="66" y="599"/>
			<point x="66" y="439" type="curve" smooth="yes"/>
			<point x="66" y="288"/>
			<point x="172" y="219"/>
		</contour>
		<contour>
			<point x="398" y="-80" type="line"/>
			<point x="496" y="-80" type="line"/>
			<point x="496" y="655" type="line"/>
			<point x="398" y="655" type="line"/>
		</contour>
	</outline>
</glyph>
<glyph name="Oslash" format="2">
	<unicode hex="00D8"/>
	<advance width="600"/>
	<outline>
		<contour>
			<point x="32" y="5" type="line"/>
			<point x="94" y="-35" type="line"/>
			<point x="565" y="649" type="line"/>
			<point x="503" y="689" type="line"/>
		</contour>
		<component base="O"/>
	</outline>
	<anchor name="aboveUC" x="300" y="675"/>
	<anchor name="baseLC" x="300" y="0"/>
</glyph>
<glyph name="Lslash" format="2">
	<unicode hex="0141"/>
	<advance width="600"/>
	<outline>
		<contour>
			<point x="40" y="178" type="line"/>
			<point x="137" y="232" type="line"/>
			<point x="217" y="266" type="line"/>
			<point x="463" y="398" type="line"/>
			<point x="429" y="460" type="line"/>
			<point x="217" y="346" type="line"/>
			<point x="137" y="311" type="line"/>
			<point x="6" y="240" type="line"/>
		</contour>
		<component base="L"/>
	</outline>
	<anchor name="aboveUC" x="190" y="675"/>
	<anchor name="belowLC" x="345" y="-20"/>
</glyph>
<glyph name="Tbar" format="2">
	<unicode hex="0166"/>
	<advance width="600"/>
	<outline>
		<contour>
			<point x="110" y="300" type="line"/>
			<point x="490" y="300" type="line"/>
			<point x="490" y="365" type="line"/>
			<point x="201" y="365" type="line"/>
			<point x="110" y="361" type="line"/>
		</contour>
		<component base="T"/>
	</outline>
	<anchor name="aboveUC" x="300" y="675"/>
	<anchor name="belowLC" x="300" y="-20"/>
</glyph>
<glyph name="tbar" format="2">
	<unicode hex="0167"/>
	<advance width="600"/>
	<outline>
		<contour>
			<point x="65" y="219" type="line"/>
			<point x="509" y="219" type="line"/>
			<point x="509" y="286" type="line"/>
			<point x="204" y="286" type="line"/>
			<point x="65" y="280" type="line"/>
		</contour>
		<component base="t"/>
	</outline>
	<anchor name="aboveLC" x="258" y="647"/>
	<anchor name="belowLC" x="377" y="-20"/>
</glyph>
<glyph name="Uogonek" format="2">
	<unicode hex="0172"/>
	<advance width="600"/>
	<outline>
		<contour>
			<point x="319" y="-226" type="curve" smooth="yes"/>
			<point x="357" y="-226"/>
			<point x="390" y="-210"/>
			<point x="414" y="-189" type="curve"/>
			<point x="387" y="-138" type="line"/>
			<point x="375" y="-148"/>
			<point x="359" y="-158"/>
			<point x="340" y="-158" type="curve" smooth="yes"/>
			<point x="314" y="-158"/>
			<point x="288" y="-143"/>
			<point x="288" y="-110" type="curve" smooth="yes"/>
			<point x="288" y="-72"/>
			<point x="310" y="-32"/>
			<point x="389" y="2" type="curve" smooth="yes"/>
			<point x="479" y="39"/>
			<point x="525" y="112"/>
			<point x="525" y="249" type="curve" smooth="yes"/>
			<point x="525" y="655" type="line"/>
			<point x="428" y="655" type="line"/>
			<point x="428" y="243" type="line" smooth="yes"/>
			<point x="428" y="123"/>
			<point x="375" y="75"/>
			<point x="300" y="75" type="curve" smooth="yes"/>
			<point x="226" y="75"/>
			<point x="176" y="123"/>
			<point x="176" y="243" type="curve" smooth="yes"/>
			<point x="176" y="655" type="line"/>
			<point x="75" y="655" type="line"/>
			<point x="75" y="249" type="line" smooth="yes"/>
			<point x="75" y="81"/>
			<point x="152" y="-3"/>
			<point x="279" y="-11" type="curve"/>
			<point x="254" y="-33"/>
			<point x="212" y="-75"/>
			<point x="212" y="-133" type="curve" smooth="yes"/>
			<point x="212" y="-194"/>
			<point x="259" y="-226"/>
		</contour>
	</outline>
	<anchor name="aboveUC" x="300" y="675"/>
</glyph>
<glyph name="Ghook" format="2">
	<unicode hex="0193"/>
	<advance width="600"/>
	<outline>
		<contour>
			<point x="528" y="586" type="line"/>
			<point x="504" y="620"/>
			<point x="490" y="641"/>
			<point x="490" y="676" type="curve" smooth="yes"/>
			<point x="490" y="706"/>
			<point x="510" y="728"/>
			<point x="543" y="728" type="curve" smooth="yes"/>
			<point x="556" y="728"/>
			<point x="565" y="724"/>
			<point x="575" y="720" type="curve"/>
			<point x="594" y="795" type="line"/>
			<point x="577" y="801"/>
			<point x="556" y="808"/>
			<point x="526" y="808" type="curve" smooth="yes"/>
			<point x="454" y="808"/>
			<point x="406" y="760"/>
			<point x="406" y="695" type="curve" smooth="yes"/>
			<point x="406" y="660"/>
			<point x="419" y="627"/>
			<point x="445" y="585" type="curve"/>
		</contour>
		<component base="G"/>
	</outline>
</glyph>
<glyph name="ohorn" format="2">
	<unicode hex="01A1"/>
	<advance width="600"/>
	<outline>
		<contour>
			<point x="447" y="440" type="line"/>
			<point x="512" y="459"/>
			<point x="568" y="503"/>
			<point x="568" y="586" type="curve" smooth="yes"/>
			<point x="568" y="618"/>
			<point x="558" y="650"/>
			<point x="543" y="673" type="curve"/>
			<point x="468" y="638" type="line"/>
			<point x="478" y="623"/>
			<point x="483" y="600"/>
			<point x="483" y="579" type="curve" smooth="yes"/>
			<point x="483" y="518"/>
			<point x="449" y="489"/>
			<point x="393" y="477" type="curve"/>
		</contour>
		<component base="o"/>
	</outline>
	<anchor name="aboveLC" x="300" y="510"/>
	<anchor name="belowLC" x="300" y="-20"/>
</glyph>
<glyph name="uhorn" format="2">
	<unicode hex="01B0"/>
	<advance width="600"/>
	<outline>
		<contour>
			<point x="500" y="453" type="line"/>
			<point x="553" y="471"/>
			<point x="604" y="510"/>
			<point x="604" y="591" type="curve" smooth="yes"/>
			<point x="604" y="623"/>
			<point x="594" y="655"/>
			<point x="579" y="678" type="curve"/>
			<point x="504" y="644" type="line"/>
			<point x="514" y="628"/>
			<point x="519" y="605"/>
			<point x="519" y="584" type="curve" smooth="yes"/>
			<point x="519" y="515"/>
			<point x="478" y="494"/>
			<point x="432" y="489" type="curve"/>
		</contour>
		<component base="u"/>
	</outline>
	<anchor name="aboveLC" x="295" y="510"/>
	<anchor name="belowLC" x="304" y="-20"/>
</glyph>
<glyph name="Oogonek" format="2">
	<unicode hex="01EA"/>
	<advance width="600"/>
	<outline>
		<contour>
			<point x="319" y="-226" type="curve" smooth="yes"/>
			<point x="357" y="-226"/>
			<point x="390" y="-210"/>
			<point x="414" y="-189" type="curve"/>
			<point x="387" y="-138" type="line"/>
			<point x="375" y="-148"/>
			<point x="359" y="-158"/>
			<point x="340" y="-158" type="curve" smooth="yes"/>
			<point x="314" y="-158"/>
			<point x="288" y="-143"/>
			<point x="288" y="-110" type="curve" smooth="yes"/>
			<point x="288" y="-71"/>
			<point x="316" y="-26"/>
			<point x="375" y="-1" type="curve" smooth="yes"/>
			<point x="488" y="48"/>
			<point x="555" y="155"/>
			<point x="555" y="330" type="curve" smooth="yes"/>
			<point x="555" y="540"/>
			<point x="450" y="667"/>
			<point x="300" y="667" type="curve" smooth="yes"/>
			<point x="150" y="667"/>
			<point x="45" y="541"/>
			<point x="45" y="330" type="curve" smooth="yes"/>
			<point x="45" y="146"/>
			<point x="127" y="3"/>
			<point x="282" y="-11" type="curve"/>
			<point x="247" y="-40"/>
			<point x="212" y="-80"/>
			<point x="212" y="-133" type="curve" smooth="yes"/>
			<point x="212" y="-194"/>
			<point x="259" y="-226"/>
		</contour>
		<contour>
			<point x="300" y="73" type="curve" smooth="yes"/>
			<point x="209" y="73"/>
			<point x="148" y="164"/>
			<point x="148" y="330" type="curve" smooth="yes"/>
			<point x="148" y="488"/>
			<point x="209" y="580"/>
			<point x="300" y="580" type="curve" smooth="yes"/>
			<point x="391" y="580"/>
			<point x="452" y="488"/>
			<point x="452" y="330" type="curve" smooth="yes"/>
			<point x="452" y="164"/>
			<point x="391" y="73"/>
		</contour>
	</outline>
	<anchor name="aboveUC" x="300" y="675"/>
</glyph>
<glyph name="oogonek" format="2">
	<unicode hex="01EB"/>
	<advance width="600"/>
	<outline>
		<contour>
			<point x="323" y="-226" type="curve" smooth="yes"/>
			<point x="364" y="-226"/>
			<point x="400" y="-211"/>
			<point x="423" y="-190" type="curve"/>
			<point x="398" y="-144" type="line"/>
			<point x="386" y="-154"/>
			<point x="369" y="-163"/>
			<point x="345" y="-163" type="curve" smooth="yes"/>
			<point x="318" y="-163"/>
			<point x="289" y="-146"/>
			<point x="289" y="-111" type="curve" smooth="yes"/>
			<point x="289" y="-72"/>
			<point x="319" y="-26"/>
			<point x="372" y="-2" type="curve" smooth="yes"/>
			<point x="475" y="43"/>
			<point x="544" y="110"/>
			<point x="544" y="244" type="curve" smooth="yes"/>
			<point x="544" y="407"/>
			<point x="429" y="501"/>
			<point x="300" y="501" type="curve" smooth="yes"/>
			<point x="171" y="501"/>
			<point x="56" y="407"/>
			<point x="56" y="244" type="curve" smooth="yes"/>
			<point x="56" y="93"/>
			<point x="155" y="-2"/>
			<point x="285" y="-11" type="curve"/>
			<point x="252" y="-38"/>
			<point x="219" y="-78"/>
			<point x="219" y="-131" type="curve" smooth="yes"/>
			<point x="219" y="-195"/>
			<point x="264" y="-226"/>
		</contour>
		<contour>
			<point x="300" y="68" type="curve" smooth="yes"/>
			<point x="213" y="68"/>
			<point x="158" y="137"/>
			<point x="158" y="244" type="curve" smooth="yes"/>
			<point x="158" y="349"/>
			<point x="213" y="419"/>
			<point x="300" y="419" type="curve" smooth="yes"/>
			<point x="387" y="419"/>
			<point x="442" y="349"/>
			<point x="442" y="244" type="curve" smooth="yes"/>
			<point x="442" y="137"/>
			<point x="387" y="68"/>
		</contour>
	</outline>
	<anchor name="aboveLC" x="300" y="510"/>
</glyph>
<glyph name="dotlessjstroke" format="2">
	<unicode hex="025F"/>
	<advance width="600"/>
	<outline>
		<contour>
			<point x="118" y="201" type="line"/>
			<point x="563" y="201" type="line"/>
			<point x="563" y="270" type="line"/>
			<point x="308" y="270" type="line"/>
			<point x="118" y="264" type="line"/>
		</contour>
		<component base="dotlessj"/>
	</outline>
	<anchor name="aboveLC" x="347" y="509"/>
	<anchor name="belowLC" x="239" y="-215"/>
</glyph>
<glyph name="gammalatin" format="2">
	<unicode hex="0263"/>
	<advance width="600"/>
	<outline>
		<contour>
			<point x="245" y="44" type="line"/>
			<point x="359" y="44" type="line"/>
			<point x="554" y="489" type="line"/>
			<point x="458" y="489" type="line"/>
			<point x="354" y="233" type="line"/>
			<point x="336" y="188"/>
			<point x="323" y="157"/>
			<point x="304" y="112" type="curve"/>
			<point x="300" y="112" type="line"/>
			<point x="282" y="157"/>
			<point x="269" y="188"/>
			<point x="251" y="233" type="curve"/>
			<point x="147" y="489" type="line"/>
			<point x="46" y="489" type="line"/>
		</contour>
		<contour>
			<point x="302" y="-220" type="curve" smooth="yes"/>
			<point x="383" y="-220"/>
			<point x="430" y="-170"/>
			<point x="430" y="-95" type="curve" smooth="yes"/>
			<point x="430" y="-42"/>
			<point x="397" y="3"/>
			<point x="352" y="90" type="curve"/>
			<point x="253" y="90" type="line"/>
			<point x="208" y="3"/>
			<point x="175" y="-42"/>
			<point x="175" y="-95" type="curve" smooth="yes"/>
			<point x="175" y="-170"/>
			<point x="222" y="-220"/>
		</contour>
		<contour>
			<point x="302" y="-154" type="curve" smooth="yes"/>
			<point x="274" y="-154"/>
			<point x="258" y="-130"/>
			<point x="258" y="-97" type="curve" smooth="yes"/>
			<point x="258" y="-68"/>
			<point x="275" y="-30"/>
			<point x="299" y="15" type="curve"/>
			<point x="304" y="15" type="line"/>
			<point x="329" y="-30"/>
			<point x="347" y="-65"/>
			<point x="347" y="-97" type="curve" smooth="yes"/>
			<point x="347" y="-130"/>
			<point x="332" y="-154"/>
		</contour>
	</outline>
	<anchor name="aboveLC" x="300" y="510"/>
	<anchor name="belowLC" x="300" y="-224"/>
</glyph>
<glyph name="hturned" format="2">
	<unicode hex="0265"/>
	<advance width="600"/>
	<outline>
		<contour>
			<point x="413" y="-200" type="line"/>
			<point x="512" y="-200" type="line"/>
			<point x="512" y="489" type="line"/>
			<point x="413" y="489" type="line"/>
			<point x="413" y="151" type="line"/>
			<point x="363" y="100"/>
			<point x="326" y="73"/>
			<point x="274" y="73" type="curve" smooth="yes"/>
			<point x="200" y="73"/>
			<point x="172" y="113"/>
			<point x="172" y="199" type="curve" smooth="yes"/>
			<point x="172" y="489" type="line"/>
			<point x="73" y="489" type="line"/>
			<point x="73" y="186" type="line" smooth="yes"/>
			<point x="73" y="58"/>
			<point x="125" y="-12"/>
			<point x="239" y="-12" type="curve" smooth="yes"/>
			<point x="315" y="-12"/>
			<point x="370" y="28"/>
			<point x="419" y="78" type="curve"/>
			<point x="413" y="-32" type="line"/>
		</contour>
	</outline>
	<anchor name="aboveLC" x="292" y="510"/>
	<anchor name="belowLC" x="370" y="-116"/>
</glyph>
<glyph name="obar" format="2">
	<unicode hex="0275"/>
	<advance width="600"/>
	<outline>
		<contour>
			<point x="300" y="-12" type="curve" smooth="yes"/>
			<point x="430" y="-12"/>
			<point x="543" y="76"/>
			<point x="543" y="243" type="curve" smooth="yes"/>
			<point x="543" y="413"/>
			<point x="430" y="501"/>
			<point x="300" y="501" type="curve" smooth="yes"/>
			<point x="170" y="501"/>
			<point x="57" y="413"/>
			<point x="57" y="243" type="curve" smooth="yes"/>
			<point x="57" y="76"/>
			<point x="170" y="-12"/>
		</contour>
		<contour>
			<point x="300" y="65" type="curve" smooth="yes"/>
			<point x="210" y="65"/>
			<point x="150" y="130"/>
			<point x="150" y="243" type="curve" smooth="yes"/>
			<point x="150" y="358"/>
			<point x="210" y="425"/>
			<point x="300" y="425" type="curve" smooth="yes"/>
			<point x="390" y="425"/>
			<point x="450" y="358"/>
			<point x="450" y="243" type="curve" smooth="yes"/>
			<point x="450" y="130"/>
			<point x="390" y="65"/>
		</contour>
		<contour>
			<point x="130" y="216" type="line"/>
			<point x="466" y="216" type="line"/>
			<point x="466" y="289" type="line"/>
			<point x="130" y="289" type="line"/>
		</contour>
	</outline>
	<anchor name="aboveLC" x="300" y="509"/>
	<anchor name="belowLC" x="300" y="-20"/>
</glyph>
<glyph name="dotlessjstrokehook" format="2">
	<unicode hex="0284"/>
	<advance width="600"/>
	<outline>
		<contour>
			<point x="83" y="222" type="line"/>
			<point x="518" y="222" type="line"/>
			<point x="518" y="289" type="line"/>
			<point x="254" y="289" type="line"/>
			<point x="83" y="283" type="line"/>
		</contour>
		<component base="esh"/>
	</outline>
	<anchor name="aboveUC" x="369" y="735"/>
	<anchor name="belowLC" x="249" y="-215"/>
</glyph>
<glyph name="r.sups" format="2">
	<unicode hex="02B3"/>
	<advance width="600"/>
	<outline>
		<contour>
			<point x="236" y="390" type="line"/>
			<point x="310" y="390" type="line"/>
			<point x="310" y="568" type="line"/>
			<point x="340" y="632"/>
			<point x="382" y="655"/>
			<point x="421" y="655" type="curve" smooth="yes"/>
			<point x="446" y="655"/>
			<point x="459" y="652"/>
			<point x="481" y="645" type="curve"/>
			<point x="496" y="708" type="line"/>
			<point x="476" y="717"/>
			<point x="458" y="721"/>
			<point x="432" y="721" type="curve" smooth="yes"/>
			<point x="381" y="721"/>
			<point x="335" y="691"/>
			<point x="306" y="639" type="curve"/>
			<point x="303" y="639" type="line"/>
			<point x="297" y="713" type="line"/>
			<point x="236" y="713" type="line"/>
		</contour>
	</outline>
</glyph>
<glyph name="verticallinemod" format="2">
	<unicode hex="02C8"/>
	<advance width="600"/>
	<outline>
		<contour>
			<point x="268" y="392" type="line"/>
			<point x="332" y="392" type="line"/>
			<point x="358" y="722" type="line"/>
			<point x="242" y="722" type="line"/>
		</contour>
	</outline>
</glyph>
<glyph name="gravecmb" format="2">
	<unicode hex="0300"/>
	<advance width="600"/>
	<outline>
		<contour>
			<point x="317" y="566" type="line"/>
			<point x="368" y="615" type="line"/>
			<point x="223" y="787" type="line"/>
			<point x="154" y="720" type="line"/>
		</contour>
	</outline>
	<anchor name="_aboveLC" x="300" y="510"/>
	<anchor name="aboveLC" x="300" y="656"/>
</glyph>
<glyph name="circumflexcmb" format="2">
	<unicode hex="0302"/>
	<advance width="600"/>
	<outline>
		<contour>
			<point x="178" y="566" type="line"/>
			<point x="298" y="674" type="line"/>
			<point x="302" y="674" type="line"/>
			<point x="422" y="566" type="line"/>
			<point x="462" y="604" type="line"/>
			<point x="350" y="741" type="line"/>
			<point x="250" y="741" type="line"/>
			<point x="138" y="604" type="line"/>
		</contour>
	</outline>
	<anchor name="_aboveLC" x="300" y="510"/>
	<anchor name="aboveLC" x="300" y="734"/>
</glyph>
<glyph name="caroncmb" format="2">
	<unicode hex="030C"/>
	<advance width="600"/>
	<outline>
		<contour>
			<point x="250" y="575" type="line"/>
			<point x="350" y="575" type="line"/>
			<point x="462" y="712" type="line"/>
			<point x="422" y="750" type="line"/>
			<point x="302" y="642" type="line"/>
			<point x="298" y="642" type="line"/>
			<point x="178" y="750" type="line"/>
			<point x="138" y="712" type="line"/>
		</contour>
	</outline>
	<anchor name="_aboveLC" x="300" y="510"/>
</glyph>
<glyph name="breveinvertedcmb" format="2">
	<unicode hex="0311"/>
	<advance width="600"/>
	<outline>
		<contour>
			<point x="200" y="567" type="line"/>
			<point x="207" y="616"/>
			<point x="238" y="665"/>
			<point x="300" y="665" type="curve" smooth="yes"/>
			<point x="362" y="665"/>
			<point x="393" y="616"/>
			<point x="400" y="567" type="curve"/>
			<point x="460" y="577" type="line"/>
			<point x="455" y="654"/>
			<point x="409" y="730"/>
			<point x="300" y="730" type="curve" smooth="yes"/>
			<point x="191" y="730"/>
			<point x="145" y="654"/>
			<point x="140" y="577" type="curve"/>
		</contour>
	</outline>
	<anchor name="_aboveLC" x="300" y="510"/>
</glyph>
<glyph name="lefttackbelowcmb" format="2">
	<unicode hex="0318"/>
	<advance width="600"/>
	<outline>
		<contour>
			<point x="336" y="-251" type="line"/>
			<point x="397" y="-251" type="line"/>
			<point x="397" y="-57" type="line"/>
			<point x="336" y="-57" type="line"/>
			<point x="336" y="-127" type="line"/>
			<point x="221" y="-127" type="line"/>
			<point x="221" y="-181" type="line"/>
			<point x="336" y="-181" type="line"/>
		</contour>
	</outline>
	<anchor name="_belowLC" x="300" y="-20"/>
</glyph>
<glyph name="righttackbelowcmb" format="2">
	<unicode hex="0319"/>
	<advance width="600"/>
	<outline>
		<contour>
			<point x="203" y="-251" type="line"/>
			<point x="264" y="-251" type="line"/>
			<point x="264" y="-181" type="line"/>
			<point x="379" y="-181" type="line"/>
			<point x="379" y="-127" type="line"/>
			<point x="264" y="-127" type="line"/>
			<point x="264" y="-57" type="line"/>
			<point x="203" y="-57" type="line"/>
		</contour>
	</outline>
	<anchor name="_belowLC" x="300" y="-20"/>
</glyph>
<glyph name="plusbelowcmb" format="2">
	<unicode hex="031F"/>
	<advance width="600"/>
	<outline>
		<contour>
			<point x="269" y="-251" type="line"/>
			<point x="331" y="-251" type="line"/>
			<point x="331" y="-181" type="line"/>
			<point x="419" y="-181" type="line"/>
			<point x="419" y="-127" type="line"/>
			<point x="331" y="-127" type="line"/>
			<point x="331" y="-57" type="line"/>
			<point x="269" y="-57" type="line"/>
			<point x="269" y="-127" type="line"/>
			<point x="181" y="-127" type="line"/>
			<point x="181" y="-181" type="line"/>
			<point x="269" y="-181" type="line"/>
		</contour>
	</outline>
	<anchor name="_belowLC" x="300" y="-20"/>
</glyph>
<glyph name="minusbelowcmb" format="2">
	<unicode hex="0320"/>
	<advance width="600"/>
	<outline>
		<contour>
			<point x="181" y="-151" type="line"/>
			<point x="419" y="-151" type="line"/>
			<point x="419" y="-98" type="line"/>
			<point x="181" y="-98" type="line"/>
		</contour>
	</outline>
	<anchor name="_belowLC" x="300" y="-20"/>
</glyph>
<glyph name="breveinverteddoublecmb" format="2">
	<unicode hex="0361"/>
	<advance width="600"/>
	<outline>
		<contour>
			<point x="-127" y="596" type="line"/>
			<point x="1" y="673"/>
			<point x="160" y="704"/>
			<point x="300" y="704" type="curve" smooth="yes"/>
			<point x="440" y="704"/>
			<point x="599" y="673"/>
			<point x="727" y="596" type="curve"/>
			<point x="755" y="645" type="line"/>
			<point x="620" y="728"/>
			<point x="466" y="771"/>
			<point x="300" y="771" type="curve" smooth="yes"/>
			<point x="134" y="771"/>
			<point x="-20" y="728"/>
			<point x="-155" y="645" type="curve"/>
		</contour>
	</outline>
</glyph>
<glyph name="Omicrontonos" format="2">
	<unicode hex="038C"/>
	<advance width="600"/>
	<outline>
		<contour>
			<point x="350" y="-12" type="curve" smooth="yes"/>
			<point x="470" y="-12"/>
			<point x="555" y="109"/>
			<point x="555" y="330" type="curve" smooth="yes"/>
			<point x="555" y="551"/>
			<point x="470" y="667"/>
			<point x="350" y="667" type="curve" smooth="yes"/>
			<point x="229" y="667"/>
			<point x="145" y="551"/>
			<point x="145" y="330" type="curve" smooth="yes"/>
			<point x="145" y="114"/>
			<point x="229" y="-12"/>
		</contour>
		<contour>
			<point x="350" y="75" type="curve" smooth="yes"/>
			<point x="284" y="75"/>
			<point x="241" y="155"/>
			<point x="241" y="330" type="curve" smooth="yes"/>
			<point x="241" y="505"/>
			<point x="284" y="580"/>
			<point x="350" y="580" type="curve" smooth="yes"/>
			<point x="415" y="580"/>
			<point x="458" y="505"/>
			<point x="458" y="330" type="curve" smooth="yes"/>
			<point x="458" y="155"/>
			<point x="415" y="75"/>
		</contour>
		<component base="tonos.cap" xOffset="-215"/>
	</outline>
</glyph>
<glyph name="mu" format="2">
	<unicode hex="03BC"/>
	<advance width="600"/>
	<outline>
		<contour>
			<point x="79" y="-190" type="line"/>
			<point x="179" y="-190" type="line"/>
			<point x="173" y="-111"/>
			<point x="172" y="-59"/>
			<point x="171" y="37" type="curve"/>
			<point x="194" y="0"/>
			<point x="229" y="-9"/>
			<point x="269" y="-9" type="curve" smooth="yes"/>
			<point x="325" y="-9"/>
			<point x="377" y="23"/>
			<point x="413" y="89" type="curve"/>
			<point x="416" y="89" type="line"/>
			<point x="423" y="15"/>
			<point x="451" y="-12"/>
			<point x="506" y="-12" type="curve" smooth="yes"/>
			<point x="529" y="-12"/>
			<point x="547" y="-8"/>
			<point x="560" y="-3" type="curve"/>
			<point x="547" y="71" type="line"/>
			<point x="538" y="69"/>
			<point x="534" y="69"/>
			<point x="529" y="69" type="curve" smooth="yes"/>
			<point x="512" y="69"/>
			<point x="499" y="79"/>
			<point x="499" y="106" type="curve" smooth="yes"/>
			<point x="499" y="214"/>
			<point x="503" y="361"/>
			<point x="506" y="489" type="curve"/>
			<point x="406" y="489" type="line"/>
			<point x="406" y="170" type="line"/>
			<point x="361" y="90"/>
			<point x="318" y="73"/>
			<point x="272" y="73" type="curve" smooth="yes"/>
			<point x="207" y="73"/>
			<point x="178" y="114"/>
			<point x="178" y="199" type="curve" smooth="yes"/>
			<point x="178" y="489" type="line"/>
			<point x="79" y="489" type="line"/>
		</contour>
	</outline>
</glyph>
<glyph name="sigma.end" format="2">
	<unicode hex="03C2"/>
	<advance width="600"/>
	<outline>
		<contour>
			<point x="444" y="-182" type="line"/>
			<point x="485" y="-124"/>
			<point x="505" y="-67"/>
			<point x="505" y="-33" type="curve" smooth="yes"/>
			<point x="505" y="39"/>
			<point x="473" y="67"/>
			<point x="356" y="93" type="curve" smooth="yes"/>
			<point x="258" y="113"/>
			<point x="188" y="149"/>
			<point x="188" y="255" type="curve" smooth="yes"/>
			<point x="188" y="354"/>
			<point x="259" y="419"/>
			<point x="355" y="419" type="curve" smooth="yes"/>
			<point x="405" y="419"/>
			<point x="439" y="405"/>
			<point x="479" y="370" type="curve"/>
			<point x="528" y="433" type="line"/>
			<point x="486" y="473"/>
			<point x="430" y="501"/>
			<point x="350" y="501" type="curve" smooth="yes"/>
			<point x="211" y="501"/>
			<point x="86" y="412"/>
			<point x="86" y="255" type="curve" smooth="yes"/>
			<point x="86" y="94"/>
			<point x="198" y="37"/>
			<point x="312" y="12" type="curve" smooth="yes"/>
			<point x="400" y="-6"/>
			<point x="417" y="-24"/>
			<point x="417" y="-56" type="curve" smooth="yes"/>
			<point x="417" y="-84"/>
			<point x="398" y="-110"/>
			<point x="365" y="-152" type="curve"/>
		</contour>
	</outline>
</glyph>
<glyph name="digamma" format="2">
	<unicode hex="03DD"/>
	<advance width="600"/>
	<outline>
		<contour>
			<point x="138" y="-178" type="line"/>
			<point x="238" y="-178" type="line"/>
			<point x="235" y="-63"/>
			<point x="233" y="32"/>
			<point x="233" y="139" type="curve"/>
			<point x="494" y="139" type="line"/>
			<point x="494" y="207" type="line"/>
			<point x="232" y="207" type="line"/>
			<point x="230" y="409" type="line"/>
			<point x="524" y="409" type="line"/>
			<point x="524" y="489" type="line"/>
			<point x="138" y="489" type="line"/>
		</contour>
	</outline>
</glyph>
<glyph name="Shcha" format="2">
	<unicode hex="0429"/>
	<advance width="600"/>
	<outline>
		<contour>
			<point x="36" y="0" type="line"/>
			<point x="533" y="0" type="line"/>
			<point x="533" y="655" type="line"/>
			<point x="445" y="655" type="line"/>
			<point x="445" y="85" type="line"/>
			<point x="327" y="85" type="line"/>
			<point x="327" y="655" type="line"/>
			<point x="242" y="655" type="line"/>
			<point x="242" y="85" type="line"/>
			<point x="123" y="85" type="line"/>
			<point x="123" y="655" type="line"/>
			<point x="36" y="655" type="line"/>
		</contour>
		<contour>
			<point x="507" y="-188" type="line"/>
			<point x="586" y="-188" type="line"/>
			<point x="596" y="24" type="line"/>
			<point x="596" y="85" type="line"/>
			<point x="478" y="85" type="line"/>
			<point x="478" y="0" type="line"/>
			<point x="507" y="0" type="line"/>
		</contour>
	</outline>
</glyph>
<glyph name="Ghestroke" format="2">
	<unicode hex="0492"/>
	<advance width="600"/>
	<outline>
		<contour>
			<point x="136" y="0" type="line"/>
			<point x="237" y="0" type="line"/>
			<point x="237" y="571" type="line"/>
			<point x="528" y="571" type="line"/>
			<point x="528" y="655" type="line"/>
			<point x="136" y="655" type="line"/>
		</contour>
		<contour>
			<point x="57" y="295" type="line"/>
			<point x="399" y="295" type="line"/>
			<point x="399" y="361" type="line"/>
			<point x="138" y="361" type="line"/>
			<point x="57" y="356" type="line"/>
		</contour>
	</outline>
</glyph>
<glyph name="kadescender" format="2">
	<unicode hex="049B"/>
	<advance width="600"/>
	<outline>
		<contour>
			<point x="494" y="-172" type="line"/>
			<point x="569" y="-172" type="line"/>
			<point x="578" y="16" type="line"/>
			<point x="578" y="80" type="line"/>
			<point x="474" y="80" type="line"/>
			<point x="474" y="0" type="line"/>
			<point x="494" y="0" type="line"/>
		</contour>
		<component base="ka"/>
	</outline>
</glyph>
<glyph name="esdescender" format="2">
	<unicode hex="04AB"/>
	<advance width="600"/>
	<outline>
		<contour>
			<point x="296" y="-172" type="line"/>
			<point x="380" y="-172" type="line"/>
			<point x="391" y="10" type="line"/>
			<point x="292" y="10" type="line"/>
		</contour>
		<component base="es"/>
	</outline>
</glyph>
<glyph name="ustraight" format="2">
	<unicode hex="04AF"/>
	<advance width="600"/>
	<outline>
		<contour>
			<point x="254" y="-200" type="line"/>
			<point x="353" y="-200" type="line"/>
			<point x="353" y="-7" type="line"/>
			<point x="554" y="489" type="line"/>
			<point x="458" y="489" type="line"/>
			<point x="356" y="230" type="line"/>
			<point x="337" y="181"/>
			<point x="321" y="131"/>
			<point x="305" y="85" type="curve"/>
			<point x="301" y="85" type="line"/>
			<point x="285" y="131"/>
			<point x="268" y="181"/>
			<point x="249" y="230" type="curve"/>
			<point x="147" y="489" type="line"/>
			<point x="46" y="489" type="line"/>
			<point x="254" y="-7" type="line"/>
		</contour>
	</outline>
</glyph>
<glyph name="Hadescender" format="2">
	<unicode hex="04B2"/>
	<advance width="600"/>
	<outline>
		<contour>
			<point x="487" y="-188" type="line"/>
			<point x="563" y="-188" type="line"/>
			<point x="573" y="24" type="line"/>
			<point x="573" y="84" type="line"/>
			<point x="463" y="84" type="line"/>
			<point x="463" y="0" type="line"/>
			<point x="487" y="0" type="line"/>
		</contour>
		<component base="Ha"/>
	</outline>
</glyph>
<glyph name="c.sups" format="2">
	<unicode hex="1D9C"/>
	<advance width="600"/>
	<outline>
		<contour>
			<point x="346" y="382" type="curve" smooth="yes"/>
			<point x="388" y="382"/>
			<point x="429" y="397"/>
			<point x="462" y="423" type="curve"/>
			<point x="431" y="470" type="line"/>
			<point x="411" y="455"/>
			<point x="385" y="442"/>
			<point x="354" y="442" type="curve" smooth="yes"/>
			<point x="294" y="442"/>
			<point x="254" y="486"/>
			<point x="254" y="551" type="curve" smooth="yes"/>
			<point x="254" y="617"/>
			<point x="296" y="661"/>
			<point x="356" y="661" type="curve" smooth="yes"/>
			<point x="380" y="661"/>
			<point x="401" y="652"/>
			<point x="420" y="636" type="curve"/>
			<point x="456" y="683" type="line"/>
			<point x="432" y="704"/>
			<point x="398" y="721"/>
			<point x="352" y="721" type="curve" smooth="yes"/>
			<point x="260" y="721"/>
			<point x="178" y="659"/>
			<point x="178" y="551" type="curve" smooth="yes"/>
			<point x="178" y="444"/>
			<point x="251" y="382"/>
		</contour>
	</outline>
</glyph>
<glyph name="Germandbls" format="2">
	<unicode hex="1E9E"/>
	<advance width="600"/>
	<outline>
		<contour>
			<point x="391" y="-12" type="curve" smooth="yes"/>
			<point x="507" y="-12"/>
			<point x="572" y="66"/>
			<point x="572" y="168" type="curve" smooth="yes"/>
			<point x="572" y="263"/>
			<point x="525" y="327"/>
			<point x="384" y="371" type="curve"/>
			<point x="388" y="337" type="line"/>
			<point x="519" y="505" type="line"/>
			<point x="488" y="603"/>
			<point x="418" y="667"/>
			<point x="304" y="667" type="curve" smooth="yes"/>
			<point x="158" y="667"/>
			<point x="74" y="573"/>
			<point x="74" y="430" type="curve" smooth="yes"/>
			<point x="74" y="0" type="line"/>
			<point x="175" y="0" type="line"/>
			<point x="175" y="413" type="line" smooth="yes"/>
			<point x="175" y="530"/>
			<point x="225" y="585"/>
			<point x="304" y="585" type="curve" smooth="yes"/>
			<point x="364" y="585"/>
			<point x="407" y="555"/>
			<point x="423" y="486" type="curve"/>
			<point x="434" y="533" type="line"/>
			<point x="303" y="363" type="line"/>
			<point x="310" y="301" type="line"/>
			<point x="434" y="276"/>
			<point x="468" y="227"/>
			<point x="468" y="168" type="curve" smooth="yes"/>
			<point x="468" y="111"/>
			<point x="434" y="70"/>
			<point x="380" y="70" type="curve" smooth="yes"/>
			<point x="338" y="70"/>
			<point x="307" y="87"/>
			<point x="277" y="121" type="curve"/>
			<point x="232" y="58" type="line"/>
			<point x="267" y="15"/>
			<point x="325" y="-12"/>
		</contour>
	</outline>
</glyph>
<glyph name="guilsinglright" format="2">
	<unicode hex="203A"/>
	<advance width="600"/>
	<outline>
		<contour>
			<point x="251" y="45" type="line"/>
			<point x="409" y="203" type="line"/>
			<point x="409" y="301" type="line"/>
			<point x="251" y="459" type="line"/>
			<point x="206" y="419" type="line"/>
			<point x="333" y="252" type="line"/>
			<point x="206" y="84" type="line"/>
		</contour>
	</outline>
</glyph>
<glyph name="n.sups" format="2">
	<unicode hex="207F"/>
	<advance width="600"/>
	<outline>
		<contour>
			<point x="170" y="390" type="line"/>
			<point x="244" y="390" type="line"/>
			<point x="244" y="614" type="line"/>
			<point x="275" y="643"/>
			<point x="295" y="658"/>
			<point x="327" y="658" type="curve" smooth="yes"/>
			<point x="371" y="658"/>
			<point x="388" y="634"/>
			<point x="388" y="583" type="curve" smooth="yes"/>
			<point x="388" y="390" type="line"/>
			<point x="462" y="390" type="line"/>
			<point x="462" y="592" type="line" smooth="yes"/>
			<point x="462" y="674"/>
			<point x="428" y="721"/>
			<point x="354" y="721" type="curve" smooth="yes"/>
			<point x="305" y="721"/>
			<point x="270" y="696"/>
			<point x="240" y="666" type="curve"/>
			<point x="237" y="666" type="line"/>
			<point x="231" y="713" type="line"/>
			<point x="170" y="713" type="line"/>
		</contour>
	</outline>
</glyph>
<glyph name="four.subs" format="2">
	<unicode hex="2084"/>
	<advance width="600"/>
	<outline>
		<contour>
			<point x="343" y="-180" type="line"/>
			<point x="411" y="-180" type="line"/>
			<point x="411" y="85" type="line"/>
			<point x="343" y="85" type="line"/>
		</contour>
		<contour>
			<point x="145" y="-80" type="line"/>
			<point x="469" y="-80" type="line"/>
			<point x="469" y="-28" type="line"/>
			<point x="224" y="-28" type="line"/>
			<point x="350" y="194" type="line"/>
			<point x="294" y="222" type="line"/>
			<point x="145" y="-42" type="line"/>
		</contour>
	</outline>
</glyph>
<glyph name="parenleft.subs" format="2">
	<unicode hex="208D"/>
	<advance width="600"/>
	<outline>
		<contour>
			<point x="340" y="-261" type="curve"/>
			<point x="394" y="-232" type="line"/>
			<point x="326" y="-147"/>
			<point x="304" y="-72"/>
			<point x="304" y="15" type="curve" smooth="yes"/>
			<point x="304" y="102"/>
			<point x="326" y="178"/>
			<point x="394" y="261" type="curve"/>
			<point x="340" y="291" type="line"/>
			<point x="263" y="202"/>
			<point x="232" y="129"/>
			<point x="232" y="15" type="curve" smooth="yes"/>
			<point x="232" y="-100"/>
			<point x="263" y="-173"/>
		</contour>
	</outline>
</glyph>
<glyph name="careof" format="2">
	<unicode hex="2105"/>
	<advance width="600"/>
	<outline>
		<contour>
			<point x="168" y="318" type="curve" smooth="yes"/>
			<point x="207" y="318"/>
			<point x="244" y="334"/>
			<point x="275" y="360" type="curve"/>
			<point x="244" y="406" type="line"/>
			<point x="226" y="390"/>
			<point x="204" y="376"/>
			<point x="176" y="376" type="curve" smooth="yes"/>
			<point x="130" y="376"/>
			<point x="99" y="419"/>
			<point x="99" y="483" type="curve" smooth="yes"/>
			<point x="99" y="548"/>
			<point x="132" y="591"/>
			<point x="177" y="591" type="curve" smooth="yes"/>
			<point x="199" y="591"/>
			<point x="216" y="581"/>
			<point x="233" y="566" type="curve"/>
			<point x="269" y="610" type="line"/>
			<point x="246" y="631"/>
			<point x="216" y="649"/>
			<point x="173" y="649" type="curve" smooth="yes"/>
			<point x="97" y="649"/>
			<point x="26" y="588"/>
			<point x="26" y="483" type="curve" smooth="yes"/>
			<point x="26" y="379"/>
			<point x="87" y="318"/>
		</contour>
		<component base="fraction" xOffset="1"/>
		<component base="zero.dnom" xOffset="132"/>
	</outline>
</glyph>
<glyph name="trademark" format="2">
	<unicode hex="2122"/>
	<advance width="600"/>
	<outline>
		<contour>
			<point x="85" y="365" type="line"/>
			<point x="154" y="365" type="line"/>
			<point x="154" y="613" type="line"/>
			<point x="245" y="613" type="line"/>
			<point x="245" y="676" type="line"/>
			<point x="-7" y="676" type="line"/>
			<point x="-7" y="613" type="line"/>
			<point x="85" y="613" type="line"/>
		</contour>
		<contour>
			<point x="288" y="365" type="line"/>
			<point x="350" y="365" type="line"/>
			<point x="350" y="491" type="line"/>
			<point x="342" y="599" type="line"/>
			<point x="346" y="599" type="line"/>
			<point x="412" y="422" type="line"/>
			<point x="459" y="422" type="line"/>
			<point x="525" y="599" type="line"/>
			<point x="529" y="599" type="line"/>
			<point x="521" y="491" type="line"/>
			<point x="521" y="365" type="line"/>
			<point x="584" y="365" type="line"/>
			<point x="584" y="676" type="line"/>
			<point x="505" y="676" type="line"/>
			<point x="463" y="567" type="line"/>
			<point x="438" y="489" type="line"/>
			<point x="434" y="489" type="line"/>
			<point x="409" y="567" type="line"/>
			<point x="367" y="676" type="line"/>
			<point x="288" y="676" type="line"/>
		</contour>
	</outline>
</glyph>
<glyph name="intersection" format="2">
	<unicode hex="2229"/>
	<advance width="600"/>
	<outline>
		<contour>
			<point x="90" y="101" type="line"/>
			<point x="166" y="101" type="line"/>
			<point x="166" y="341" type="line" smooth="yes"/>
			<point x="166" y="441"/>
			<point x="219" y="496"/>
			<point x="300" y="496" type="curve" smooth="yes"/>
			<point x="381" y="496"/>
			<point x="434" y="441"/>
			<point x="434" y="341" type="curve" smooth="yes"/>
			<point x="434" y="101" type="line"/>
			<point x="510" y="101" type="line"/>
			<point x="510" y="353" type="line" smooth="yes"/>
			<point x="510" y="485"/>
			<point x="422" y="573"/>
			<point x="300" y="573" type="curve" smooth="yes"/>
			<point x="178" y="573"/>
			<point x="90" y="485"/>
			<point x="90" y="353" type="curve" smooth="yes"/>
		</contour>
	</outline>
</glyph>
<glyph name="house" format="2">
	<unicode hex="2302"/>
	<advance width="600"/>
	<outline>
		<contour>
			<point x="45" y="0" type="line"/>
			<point x="555" y="0" type="line"/>
			<point x="555" y="360" type="line"/>
			<point x="342" y="666" type="line"/>
			<point x="258" y="666" type="line"/>
			<point x="45" y="360" type="line"/>
		</contour>
		<contour>
			<point x="129" y="70" type="line"/>
			<point x="129" y="335" type="line"/>
			<point x="220" y="472" type="line"/>
			<point x="298" y="593" type="line"/>
			<point x="302" y="593" type="line"/>
			<point x="380" y="472" type="line"/>
			<point x="471" y="335" type="line"/>
			<point x="471" y="70" type="line"/>
		</contour>
	</outline>
</glyph>
<glyph name="lightdnrightbxd" format="2">
	<unicode hex="250C"/>
	<advance width="600"/>
	<outline>
		<contour>
			<point x="647" y="253" type="line"/>
			<point x="647" y="347" type="line"/>
			<point x="253" y="347" type="line"/>
			<point x="253" y="-400" type="line"/>
			<point x="347" y="-400" type="line"/>
			<point x="347" y="253" type="line"/>
		</contour>
	</outline>
</glyph>
<glyph name="lightuprightbxd" format="2">
	<unicode hex="2514"/>
	<advance width="600"/>
	<outline>
		<contour>
			<point x="647" y="253" type="line"/>
			<point x="647" y="347" type="line"/>
			<point x="347" y="347" type="line"/>
			<point x="347" y="1000" type="line"/>
			<point x="253" y="1000" type="line"/>
			<point x="253" y="253" type="line"/>
		</contour>
	</outline>
</glyph>
<glyph name="lightvertrightbxd" format="2">
	<unicode hex="251C"/>
	<advance width="600"/>
	<outline>
		<contour>
			<point x="647" y="253" type="line"/>
			<point x="647" y="347" type="line"/>
			<point x="347" y="347" type="line"/>
			<point x="347" y="1000" type="line"/>
			<point x="253" y="1000" type="line"/>
			<point x="253" y="-400" type="line"/>
			<point x="347" y="-400" type="line"/>
			<point x="347" y="253" type="line"/>
		</contour>
	</outline>
</glyph>
<glyph name="dnheavyrightuplightbxd" format="2">
	<unicode hex="251F"/>
	<advance width="600"/>
	<outline>
		<contour>
			<point x="647" y="253" type="line"/>
			<point x="647" y="347" type="line"/>
			<point x="347" y="347" type="line"/>
			<point x="347" y="1000" type="line"/>
			<point x="253" y="1000" type="line"/>
			<point x="253" y="347" type="line"/>
			<point x="207" y="347" type="line"/>
			<point x="207" y="-400" type="line"/>
			<point x="393" y="-400" type="line"/>
			<point x="393" y="253" type="line"/>
		</contour>
	</outline>
</glyph>
<glyph name="heavyvertleftbxd" format="2">
	<unicode hex="252B"/>
	<advance width="600"/>
	<outline>
		<contour>
			<point x="393" y="-400" type="line"/>
			<point x="393" y="1000" type="line"/>
			<point x="207" y="1000" type="line"/>
			<point x="207" y="393" type="line"/>
			<point x="-47" y="393" type="line"/>
			<point x="-47" y="207" type="line"/>
			<point x="207" y="207" type="line"/>
			<point x="207" y="-400" type="line"/>
		</contour>
	</outline>
</glyph>
<glyph name="leftupheavyrightdnlightbxd" format="2">
	<unicode hex="2543"/>
	<advance width="600"/>
	<outline>
		<contour>
			<point x="393" y="207" type="line"/>
			<point x="393" y="253" type="line"/>
			<point x="647" y="253" type="line"/>
			<point x="647" y="347" type="line"/>
			<point x="393" y="347" type="line"/>
			<point x="393" y="1000" type="line"/>
			<point x="207" y="1000" type="line"/>
			<point x="207" y="393" type="line"/>
			<point x="-47" y="393" type="line"/>
			<point x="-47" y="207" type="line"/>
			<point x="253" y="207" type="line"/>
			<point x="253" y="-400" type="line"/>
			<point x="347" y="-400" type="line"/>
			<point x="347" y="207" type="line"/>
		</contour>
	</outline>
</glyph>
<glyph name="vertsngrightdblbxd" format="2">
	<unicode hex="255E"/>
	<advance width="600"/>
	<outline>
		<contour>
			<point x="647" y="160" type="line"/>
			<point x="647" y="253" type="line"/>
			<point x="347" y="253" type="line"/>
			<point x="347" y="347" type="line"/>
			<point x="647" y="347" type="line"/>
			<point x="647" y="440" type="line"/>
			<point x="347" y="440" type="line"/>
			<point x="347" y="1000" type="line"/>
			<point x="253" y="1000" type="line"/>
			<point x="253" y="-400" type="line"/>
			<point x="347" y="-400" type="line"/>
			<point x="347" y="160" type="line"/>
		</contour>
	</outline>
</glyph>
<glyph name="lightdiagupleftdnrightbxd" format="2">
	<unicode hex="2572"/>
	<advance width="600"/>
	<outline>
		<contour>
			<point x="52" y="900" type="line"/>
			<point x="0" y="900" type="line"/>
			<point x="0" y="796" type="line"/>
			<point x="548" y="-300" type="line"/>
			<point x="600" y="-300" type="line"/>
			<point x="600" y="-196" type="line"/>
		</contour>
	</outline>
</glyph>
<glyph name="heavyupbxd" format="2">
	<unicode hex="2579"/>
	<advance width="600"/>
	<outline>
		<contour>
			<point x="207" y="253" type="line"/>
			<point x="393" y="253" type="line"/>
			<point x="393" y="1000" type="line"/>
			<point x="207" y="1000" type="line"/>
		</contour>
	</outline>
</glyph>
<glyph name="heavyrightbxd" format="2">
	<unicode hex="257A"/>
	<advance width="600"/>
	<outline>
		<contour>
			<point x="253" y="207" type="line"/>
			<point x="647" y="207" type="line"/>
			<point x="647" y="393" type="line"/>
			<point x="253" y="393" type="line"/>
		</contour>
	</outline>
</glyph>
<glyph name="squarewhite" format="2">
	<unicode hex="25A1"/>
	<advance width="600"/>
	<outline>
		<contour>
			<point x="68" y="98" type="line"/>
			<point x="532" y="98" type="line"/>
			<point x="532" y="562" type="line"/>
			<point x="68" y="562" type="line"/>
		</contour>
		<contour>
			<point x="130" y="155" type="line"/>
			<point x="130" y="505" type="line"/>
			<point x="470" y="505" type="line"/>
			<point x="470" y="155" type="line"/>
		</contour>
	</outline>
</glyph>
<glyph name="bulletsquare" format="2">
	<unicode hex="25AA"/>
	<advance width="600"/>
	<outline>
		<contour>
			<point x="162" y="125" type="line"/>
			<point x="438" y="125" type="line"/>
			<point x="438" y="399" type="line"/>
			<point x="162" y="399" type="line"/>
		</contour>
	</outline>
</glyph>
<glyph name="circlewhite" format="2">
	<unicode hex="25CB"/>
	<advance width="600"/>
	<outline>
		<contour>
			<point x="300" y="89" type="curve" smooth="yes"/>
			<point x="442" y="89"/>
			<point x="544" y="192"/>
			<point x="544" y="330" type="curve" smooth="yes"/>
			<point x="544" y="468"/>
			<point x="442" y="571"/>
			<point x="300" y="571" type="curve" smooth="yes"/>
			<point x="158" y="571"/>
			<point x="56" y="468"/>
			<point x="56" y="330" type="curve" smooth="yes"/>
			<point x="56" y="192"/>
			<point x="158" y="89"/>
		</contour>
		<contour>
			<point x="300" y="145" type="curve" smooth="yes"/>
			<point x="197" y="145"/>
			<point x="121" y="223"/>
			<point x="121" y="330" type="curve" smooth="yes"/>
			<point x="121" y="437"/>
			<point x="197" y="515"/>
			<point x="300" y="515" type="curve" smooth="yes"/>
			<point x="403" y="515"/>
			<point x="479" y="437"/>
			<point x="479" y="330" type="curve" smooth="yes"/>
			<point x="479" y="223"/>
			<point x="403" y="145"/>
		</contour>
	</outline>
</glyph>
<glyph name="checkedbox" format="2">
	<unicode hex="2611"/>
	<advance width="600"/>
	<outline>
		<contour>
			<point x="243" y="105" type="curve"/>
			<point x="343" y="117" type="line"/>
			<point x="418" y="386"/>
			<point x="558" y="603"/>
			<point x="706" y="742" type="curve"/>
			<point x="643" y="799" type="line"/>
			<point x="496" y="652"/>
			<point x="356" y="417"/>
			<point x="288" y="184" type="curve"/>
			<point x="284" y="184" type="line"/>
			<point x="256" y="265"/>
			<point x="217" y="349"/>
			<point x="169" y="425" type="curve"/>
			<point x="103" y="381" type="line"/>
			<point x="162" y="294"/>
			<point x="207" y="207"/>
		</contour>
		<component base="checkbox"/>
	</outline>
</glyph>
<glyph name="male" format="2">
	<unicode hex="2642"/>
	<advance width="600"/>
	<outline>
		<contour>
			<point x="229" y="5" type="curve" smooth="yes"/>
			<point x="369" y="5"/>
			<point x="472" y="106"/>
			<point x="472" y="240" type="curve" smooth="yes"/>
			<point x="472" y="373"/>
			<point x="369" y="475"/>
			<point x="229" y="475" type="curve" smooth="yes"/>
			<point x="88" y="475"/>
			<point x="-15" y="373"/>
			<point x="-15" y="240" type="curve" smooth="yes"/>
			<point x="-15" y="106"/>
			<point x="88" y="5"/>
		</contour>
		<contour>
			<point x="229" y="71" type="curve" smooth="yes"/>
			<point x="134" y="71"/>
			<point x="64" y="141"/>
			<point x="64" y="240" type="curve" smooth="yes"/>
			<point x="64" y="339"/>
			<point x="134" y="409"/>
			<point x="229" y="409" type="curve" smooth="yes"/>
			<point x="324" y="409"/>
			<point x="395" y="339"/>
			<point x="395" y="240" type="curve" smooth="yes"/>
			<point x="395" y="141"/>
			<point x="324" y="71"/>
		</contour>
		<contour>
			<point x="390" y="363" type="line"/>
			<point x="554" y="533" type="line"/>
			<point x="546" y="369" type="line"/>
			<point x="615" y="369" type="line"/>
			<point x="617" y="645" type="line"/>
			<point x="614" y="648" type="line"/>
			<point x="338" y="646" type="line"/>
			<point x="338" y="577" type="line"/>
			<point x="502" y="585" type="line"/>
			<point x="333" y="421" type="line"/>
		</contour>
	</outline>
</glyph>
<glyph name="Eng.a" format="2">
	<advance width="600"/>
	<outline>
		<contour>
			<point x="392" y="-169" type="curve" smooth="yes"/>
			<point x="485" y="-169"/>
			<point x="522" y="-100"/>
			<point x="522" y="2" type="curve"/>
			<point x="522" y="655" type="line"/>
			<point x="426" y="655" type="line"/>
			<point x="426" y="343" type="line" smooth="yes"/>
			<point x="426" y="272"/>
			<point x="436" y="194"/>
			<point x="440" y="128" type="curve"/>
			<point x="437" y="128" type="line"/>
			<point x="376" y="266" type="line"/>
			<point x="185" y="655" type="line"/>
			<point x="78" y="655" type="line"/>
			<point x="78" y="0" type="line"/>
			<point x="174" y="0" type="line"/>
			<point x="174" y="314" type="line" smooth="yes"/>
			<point x="174" y="384"/>
			<point x="164" y="459"/>
			<point x="160" y="527" type="curve"/>
			<point x="163" y="527" type="line"/>
			<point x="224" y="389" type="line"/>
			<point x="415" y="0" type="line"/>
			<point x="426" y="0" type="line"/>
			<point x="426" y="-52"/>
			<point x="417" y="-88"/>
			<point x="377" y="-88" type="curve" smooth="yes"/>
			<point x="363" y="-88"/>
			<point x="349" y="-84"/>
			<point x="337" y="-80" type="curve"/>
			<point x="318" y="-157" type="line"/>
			<point x="335" y="-163"/>
			<point x="360" y="-169"/>
		</contour>
	</outline>
	<anchor name="aboveUC" x="310" y="675"/>
</glyph>
<glyph name="acutecmb.cap" format="2">
	<advance width="600"/>
	<outline>
		<contour>
			<point x="269" y="693" type="line"/>
			<point x="429" y="808" type="line"/>
			<point x="374" y="874" type="line"/>
			<point x="225" y="743" type="line"/>
		</contour>
	</outline>
	<anchor name="_aboveUC" x="300" y="675"/>
</glyph>
<glyph name="aspercmb" format="2">
	<advance width="600"/>
	<outline>
		<contour>
			<point x="335" y="572" type="curve"/>
			<point x="345" y="616" type="line"/>
			<point x="314" y="623"/>
			<point x="291" y="635"/>
			<point x="291" y="660" type="curve" smooth="yes"/>
			<point x="291" y="687"/>
			<point x="317" y="702"/>
			<point x="373" y="705" type="curve"/>
			<point x="367" y="769" type="line"/>
			<point x="267" y="766"/>
			<point x="216" y="730"/>
			<point x="216" y="668" type="curve" smooth="yes"/>
			<point x="216" y="607"/>
			<point x="272" y="581"/>
		</contour>
	</outline>
	<anchor name="_aboveLC" x="300" y="510"/>
</glyph>
<glyph name="brevehoicmb.cap" format="2">
	<advance width="600"/>
	<outline>
		<contour>
			<point x="300" y="703" type="curve" smooth="yes"/>
			<point x="394" y="703"/>
			<point x="442" y="759"/>
			<point x="450" y="834" type="curve"/>
			<point x="397" y="844" type="line"/>
			<point x="388" y="795"/>
			<point x="356" y="759"/>
			<point x="300" y="759" type="curve" smooth="yes"/>
			<point x="244" y="759"/>
			<point x="212" y="795"/>
			<point x="203" y="844" type="curve"/>
			<point x="150" y="834" type="line"/>
			<point x="158" y="759"/>
			<point x="206" y="703"/>
		</contour>
		<contour>
			<point x="275" y="802" type="line"/>
			<point x="327" y="809"/>
			<point x="373" y="830"/>
			<point x="373" y="883" type="curve" smooth="yes"/>
			<point x="373" y="929"/>
			<point x="332" y="954"/>
			<point x="246" y="957" type="curve"/>
			<point x="236" y="911" type="line"/>
			<point x="286" y="908"/>
			<point x="305" y="898"/>
			<point x="305" y="874" type="curve" smooth="yes"/>
			<point x="305" y="854"/>
			<point x="287" y="845"/>
			<point x="264" y="839" type="curve"/>
		</contour>
	</outline>
	<anchor name="_aboveUC" x="300" y="675"/>
</glyph>
<glyph name="brevehoicmb" format="2">
	<advance width="600"/>
	<outline>
		<contour>
			<point x="300" y="571" type="curve" smooth="yes"/>
			<point x="409" y="571"/>
			<point x="455" y="646"/>
			<point x="460" y="724" type="curve"/>
			<point x="404" y="734" type="line"/>
			<point x="397" y="681"/>
			<point x="365" y="631"/>
			<point x="300" y="631" type="curve" smooth="yes"/>
			<point x="235" y="631"/>
			<point x="203" y="681"/>
			<point x="196" y="734" type="curve"/>
			<point x="140" y="724" type="line"/>
			<point x="145" y="646"/>
			<point x="191" y="571"/>
		</contour>
		<contour>
			<point x="271" y="686" type="line"/>
			<point x="325" y="694"/>
			<point x="376" y="716"/>
			<point x="376" y="773" type="curve" smooth="yes"/>
			<point x="376" y="826"/>
			<point x="330" y="856"/>
			<point x="241" y="859" type="curve"/>
			<point x="233" y="801" type="line"/>
			<point x="286" y="798"/>
			<point x="307" y="786"/>
			<point x="307" y="762" type="curve" smooth="yes"/>
			<point x="307" y="742"/>
			<point x="288" y="731"/>
			<point x="262" y="726" type="curve"/>
		</contour>
	</outline>
	<anchor name="_aboveLC" x="300" y="510"/>
</glyph>
<glyph name="circumflexhoicmb" format="2">
	<advance width="600"/>
	<outline>
		<contour>
			<point x="195" y="569" type="line"/>
			<point x="298" y="639" type="line"/>
			<point x="302" y="639" type="line"/>
			<point x="405" y="569" type="line"/>
			<point x="438" y="608" type="line"/>
			<point x="340" y="700" type="line"/>
			<point x="260" y="700" type="line"/>
			<point x="162" y="608" type="line"/>
		</contour>
		<contour>
			<point x="421" y="638" type="line"/>
			<point x="473" y="648"/>
			<point x="521" y="667"/>
			<point x="521" y="723" type="curve" smooth="yes"/>
			<point x="521" y="770"/>
			<point x="478" y="795"/>
			<point x="392" y="798" type="curve"/>
			<point x="384" y="752" type="line"/>
			<point x="433" y="749"/>
			<point x="452" y="737"/>
			<point x="452" y="713" type="curve" smooth="yes"/>
			<point x="452" y="692"/>
			<point x="436" y="683"/>
			<point x="412" y="676" type="curve"/>
		</contour>
	</outline>
	<anchor name="_aboveLC" x="300" y="510"/>
</glyph>
<glyph name="circumflextildecmb" format="2">
	<advance width="600"/>
	<outline>
		<contour>
			<point x="195" y="569" type="line"/>
			<point x="298" y="635" type="line"/>
			<point x="302" y="635" type="line"/>
			<point x="405" y="569" type="line"/>
			<point x="438" y="608" type="line"/>
			<point x="340" y="695" type="line"/>
			<point x="260" y="695" type="line"/>
			<point x="162" y="608" type="line"/>
		</contour>
		<contour>
			<point x="363" y="712" type="curve" smooth="yes"/>
			<point x="411" y="712"/>
			<point x="434" y="748"/>
			<point x="440" y="806" type="curve"/>
			<point x="390" y="811" type="line"/>
			<point x="385" y="783"/>
			<point x="377" y="770"/>
			<point x="358" y="770" type="curve" smooth="yes"/>
			<point x="322" y="770"/>
			<point x="294" y="812"/>
			<point x="237" y="812" type="curve" smooth="yes"/>
			<point x="189" y="812"/>
			<point x="166" y="775"/>
			<point x="160" y="718" type="curve"/>
			<point x="210" y="713" type="line"/>
			<point x="215" y="741"/>
			<point x="223" y="754"/>
			<point x="242" y="754" type="curve" smooth="yes"/>
			<point x="277" y="754"/>
			<point x="306" y="712"/>
		</contour>
	</outline>
	<anchor name="_aboveLC" x="300" y="510"/>
</glyph>
<glyph name="commabelowcmb.a" format="2">
	<advance width="600"/>
	<outline>
		<contour>
			<point x="341" y="573" type="curve"/>
			<point x="361" y="616" type="line"/>
			<point x="315" y="620"/>
			<point x="292" y="632"/>
			<point x="292" y="656" type="curve" smooth="yes"/>
			<point x="292" y="682"/>
			<point x="317" y="696"/>
			<point x="399" y="701" type="curve"/>
			<point x="391" y="747" type="line"/>
			<point x="280" y="742"/>
			<point x="218" y="713"/>
			<point x="218" y="652" type="curve" smooth="yes"/>
			<point x="218" y="606"/>
			<point x="248" y="583"/>
		</contour>
	</outline>
	<anchor name="_aboveLC" x="300" y="510"/>
</glyph>
<glyph name="dotlessi.a" format="2">
	<advance width="600"/>
	<outline>
		<contour>
			<point x="286" y="0" type="line"/>
			<point x="385" y="0" type="line"/>
			<point x="385" y="489" type="line"/>
			<point x="118" y="489" type="line"/>
			<point x="118" y="409" type="line"/>
			<point x="286" y="409" type="line"/>
		</contour>
		<contour>
			<point x="95" y="0" type="line"/>
			<point x="564" y="0" type="line"/>
			<point x="564" y="80" type="line"/>
			<point x="95" y="80" type="line"/>
		</contour>
	</outline>
	<anchor name="aboveLC" x="327" y="510"/>
	<anchor name="baseLC" x="334" y="0"/>
	<anchor name="belowLC" x="327" y="-20"/>
	<anchor name="ogonekLC" x="335" y="0"/>
</glyph>
<glyph name="eacute.sups" format="2">
	<advance width="600"/>
	<outline>
		<contour>
			<point x="298" y="761" type="line"/>
			<point x="413" y="871" type="line"/>
			<point x="362" y="919" type="line"/>
			<point x="258" y="797" type="line"/>
		</contour>
		<component base="e.sups"/>
	</outline>
</glyph>
<glyph name="eogonek.sups" format="2">
	<advance width="600"/>
	<outline>
		<contour>
			<point x="384" y="238" type="curve" smooth="yes"/>
			<point x="410" y="238"/>
			<point x="434" y="250"/>
			<point x="451" y="264" type="curve"/>
			<point x="432" y="299" type="line"/>
			<point x="424" y="291"/>
			<point x="413" y="285"/>
			<point x="398" y="285" type="curve" smooth="yes"/>
			<point x="381" y="285"/>
			<point x="363" y="294"/>
			<point x="363" y="317" type="curve" smooth="yes"/>
			<point x="363" y="349"/>
			<point x="383" y="375"/>
			<point x="446" y="417" type="curve"/>
			<point x="421" y="463" type="line"/>
			<point x="393" y="447"/>
			<point x="363" y="438"/>
			<point x="328" y="438" type="curve" smooth="yes"/>
			<point x="263" y="438"/>
			<point x="211" y="476"/>
			<point x="211" y="551" type="curve" smooth="yes"/>
			<point x="211" y="630"/>
			<point x="259" y="664"/>
			<point x="312" y="664" type="curve" smooth="yes"/>
			<point x="362" y="664"/>
			<point x="397" y="636"/>
			<point x="397" y="565" type="curve"/>
			<point x="414" y="583" type="line"/>
			<point x="190" y="583" type="line"/>
			<point x="190" y="531" type="line"/>
			<point x="456" y="531" type="line"/>
			<point x="457" y="540"/>
			<point x="459" y="553"/>
			<point x="459" y="568" type="curve" smooth="yes"/>
			<point x="459" y="658"/>
			<point x="407" y="721"/>
			<point x="308" y="721" type="curve" smooth="yes"/>
			<point x="222" y="721"/>
			<point x="143" y="655"/>
			<point x="143" y="551" type="curve" smooth="yes"/>
			<point x="143" y="444"/>
			<point x="221" y="382"/>
			<point x="320" y="382" type="curve" smooth="yes"/>
			<point x="335" y="382"/>
			<point x="361" y="383"/>
			<point x="385" y="394" type="curve"/>
			<point x="379" y="402" type="line"/>
			<point x="338" y="373"/>
			<point x="311" y="342"/>
			<point x="311" y="303" type="curve" smooth="yes"/>
			<point x="311" y="258"/>
			<point x="344" y="238"/>
		</contour>
	</outline>
</glyph>
<glyph name="five.dnom" format="2">
	<advance width="600"/>
	<outline>
		<contour>
			<point x="301" y="-12" type="curve" smooth="yes"/>
			<point x="374" y="-12"/>
			<point x="428" y="32"/>
			<point x="428" y="95" type="curve" smooth="yes"/>
			<point x="428" y="158"/>
			<point x="383" y="194"/>
			<point x="317" y="194" type="curve" smooth="yes"/>
			<point x="298" y="194"/>
			<point x="278" y="190"/>
			<point x="264" y="183" type="curve"/>
			<point x="272" y="244" type="line"/>
			<point x="410" y="244" type="line"/>
			<point x="410" y="307" type="line"/>
			<point x="214" y="307" type="line"/>
			<point x="199" y="150" type="line"/>
			<point x="232" y="128" type="line"/>
			<point x="252" y="141"/>
			<point x="269" y="149"/>
			<point x="293" y="149" type="curve" smooth="yes"/>
			<point x="330" y="149"/>
			<point x="354" y="131"/>
			<point x="354" y="97" type="curve" smooth="yes"/>
			<point x="354" y="64"/>
			<point x="329" y="45"/>
			<point x="294" y="45" type="curve" smooth="yes"/>
			<point x="256" y="45"/>
			<point x="227" y="63"/>
			<point x="204" y="85" type="curve"/>
			<point x="170" y="39" type="line"/>
			<point x="209" y="5"/>
			<point x="249" y="-12"/>
		</contour>
	</outline>
</glyph>
<glyph name="four.cap" format="2">
	<advance width="600"/>
	<outline>
		<contour>
			<point x="361" y="0" type="line"/>
			<point x="454" y="0" type="line"/>
			<point x="454" y="655" type="line"/>
			<point x="343" y="655" type="line"/>
			<point x="38" y="242" type="line"/>
			<point x="38" y="175" type="line"/>
			<point x="549" y="175" type="line"/>
			<point x="549" y="253" type="line"/>
			<point x="141" y="253" type="line"/>
			<point x="295" y="460" type="line"/>
			<point x="317" y="493"/>
			<point x="342" y="526"/>
			<point x="363" y="560" type="curve"/>
			<point x="366" y="560" type="line"/>
			<point x="364" y="523"/>
			<point x="362" y="475"/>
			<point x="361" y="437" type="curve"/>
		</contour>
	</outline>
</glyph>
<glyph name="gravecmb.cap" format="2">
	<advance width="600"/>
	<outline>
		<contour>
			<point x="331" y="693" type="line"/>
			<point x="375" y="743" type="line"/>
			<point x="226" y="874" type="line"/>
			<point x="171" y="808" type="line"/>
		</contour>
	</outline>
	<anchor name="_aboveUC" x="300" y="675"/>
</glyph>
<glyph name="l.a" format="2">
	<advance width="600"/>
	<outline>
		<contour>
			<point x="286" y="0" type="line"/>
			<point x="385" y="0" type="line"/>
			<point x="385" y="709" type="line"/>
			<point x="118" y="709" type="line"/>
			<point x="118" y="630" type="line"/>
			<point x="286" y="630" type="line"/>
		</contour>
		<contour>
			<point x="95" y="0" type="line"/>
			<point x="564" y="0" type="line"/>
			<point x="564" y="80" type="line"/>
			<point x="95" y="80" type="line"/>
		</contour>
	</outline>
	<anchor name="aboveUC" x="332" y="735"/>
	<anchor name="baseLC" x="334" y="0"/>
	<anchor name="belowLC" x="327" y="-20"/>
	<anchor name="center" x="335" y="381"/>
</glyph>
<glyph name="lcat" format="2">
	<advance width="600"/>
	<outline>
		<contour>
			<point x="231" y="-12" type="curve" smooth="yes"/>
			<point x="264" y="-12"/>
			<point x="284" y="-1"/>
			<point x="313" y="9" type="curve"/>
			<point x="289" y="83" type="line"/>
			<point x="269" y="75"/>
			<point x="257" y="69"/>
			<point x="244" y="69" type="curve" smooth="yes"/>
			<point x="206" y="69"/>
			<point x="180" y="96"/>
			<point x="180" y="165" type="curve" smooth="yes"/>
			<point x="180" y="709" type="line"/>
			<point x="-13" y="709" type="line"/>
			<point x="-13" y="630" type="line"/>
			<point x="90" y="630" type="line"/>
			<point x="90" y="171" type="line" smooth="yes"/>
			<point x="90" y="53"/>
			<point x="139" y="-12"/>
		</contour>
		<contour>
			<point x="292" y="278" type="curve" smooth="yes"/>
			<point x="336" y="278"/>
			<point x="370" y="310"/>
			<point x="370" y="360" type="curve" smooth="yes"/>
			<point x="370" y="409"/>
			<point x="336" y="439"/>
			<point x="292" y="439" type="curve" smooth="yes"/>
			<point x="249" y="439"/>
			<point x="216" y="409"/>
			<point x="216" y="360" type="curve" smooth="yes"/>
			<point x="216" y="310"/>
			<point x="249" y="278"/>
		</contour>
		<contour>
			<point x="541" y="-12" type="curve" smooth="yes"/>
			<point x="575" y="-12"/>
			<point x="595" y="-1"/>
			<point x="624" y="9" type="curve"/>
			<point x="600" y="83" type="line"/>
			<point x="581" y="75"/>
			<point x="569" y="69"/>
			<point x="555" y="69" type="curve" smooth="yes"/>
			<point x="517" y="69"/>
			<point x="491" y="96"/>
			<point x="491" y="165" type="curve" smooth="yes"/>
			<point x="491" y="709" type="line"/>
			<point x="298" y="709" type="line"/>
			<point x="298" y="630" type="line"/>
			<point x="401" y="630" type="line"/>
			<point x="401" y="171" type="line" smooth="yes"/>
			<point x="401" y="53"/>
			<point x="450" y="-12"/>
		</contour>
	</outline>
</glyph>
<glyph name="lenistildecmb" format="2">
	<advance width="600"/>
	<outline>
		<contour>
			<point x="363" y="718" type="curve" smooth="yes"/>
			<point x="414" y="718"/>
			<point x="439" y="754"/>
			<point x="445" y="812" type="curve"/>
			<point x="390" y="817" type="line"/>
			<point x="385" y="789"/>
			<point x="377" y="776"/>
			<point x="358" y="776" type="curve" smooth="yes"/>
			<point x="322" y="776"/>
			<point x="294" y="818"/>
			<point x="237" y="818" type="curve" smooth="yes"/>
			<point x="186" y="818"/>
			<point x="161" y="781"/>
			<point x="155" y="723" type="curve"/>
			<point x="210" y="719" type="line"/>
			<point x="215" y="747"/>
			<point x="223" y="760"/>
			<point x="242" y="760" type="curve" smooth="yes"/>
			<point x="277" y="760"/>
			<point x="306" y="718"/>
		</contour>
		<contour>
			<point x="271" y="562" type="line"/>
			<point x="323" y="571"/>
			<point x="371" y="593"/>
			<point x="371" y="636" type="curve" smooth="yes"/>
			<point x="371" y="677"/>
			<point x="328" y="696"/>
			<point x="242" y="699" type="curve"/>
			<point x="234" y="655" type="line"/>
			<point x="283" y="652"/>
			<point x="302" y="643"/>
			<point x="302" y="625" type="curve" smooth="yes"/>
			<point x="302" y="613"/>
			<point x="285" y="604"/>
			<point x="262" y="599" type="curve"/>
		</contour>
	</outline>
	<anchor name="_aboveLC" x="300" y="510"/>
</glyph>
<glyph name="lslash.a" format="2">
	<advance width="600"/>
	<outline>
		<contour>
			<point x="286" y="0" type="line"/>
			<point x="385" y="0" type="line"/>
			<point x="385" y="709" type="line"/>
			<point x="118" y="709" type="line"/>
			<point x="118" y="630" type="line"/>
			<point x="286" y="630" type="line"/>
		</contour>
		<contour>
			<point x="95" y="0" type="line"/>
			<point x="564" y="0" type="line"/>
			<point x="564" y="80" type="line"/>
			<point x="95" y="80" type="line"/>
		</contour>
		<contour>
			<point x="184" y="260" type="line"/>
			<point x="291" y="323" type="line"/>
			<point x="368" y="357" type="line"/>
			<point x="560" y="465" type="line"/>
			<point x="526" y="529" type="line"/>
			<point x="368" y="440" type="line"/>
			<point x="291" y="405" type="line"/>
			<point x="150" y="324" type="line"/>
		</contour>
	</outline>
	<anchor name="aboveUC" x="332" y="735"/>
	<anchor name="baseLC" x="334" y="0"/>
	<anchor name="belowLC" x="327" y="-20"/>
</glyph>
<glyph name="macroncmb.cap" format="2">
	<advance width="600"/>
	<outline>
		<contour>
			<point x="162" y="731" type="line"/>
			<point x="438" y="731" type="line"/>
			<point x="438" y="798" type="line"/>
			<point x="162" y="798" type="line"/>
		</contour>
	</outline>
	<anchor name="_aboveUC" x="300" y="675"/>
</glyph>
<glyph name="seven.dnom" format="2">
	<advance width="600"/>
	<outline>
		<contour>
			<point x="248" y="0" type="curve"/>
			<point x="325" y="0" type="line"/>
			<point x="330" y="106"/>
			<point x="347" y="174"/>
			<point x="430" y="266" type="curve"/>
			<point x="430" y="307" type="line"/>
			<point x="181" y="307" type="line"/>
			<point x="181" y="245" type="line"/>
			<point x="345" y="245" type="line"/>
			<point x="282" y="163"/>
			<point x="254" y="100"/>
		</contour>
	</outline>
</glyph>
<glyph name="seven.onum" format="2">
	<advance width="600"/>
	<outline>
		<contour>
			<point x="217" y="-75" type="curve"/>
			<point x="319" y="-75" type="line"/>
			<point x="330" y="180"/>
			<point x="367" y="323"/>
			<point x="534" y="514" type="curve"/>
			<point x="534" y="575" type="line"/>
			<point x="68" y="575" type="line"/>
			<point x="68" y="490" type="line"/>
			<point x="423" y="490" type="line"/>
			<point x="280" y="312"/>
			<point x="228" y="163"/>
		</contour>
	</outline>
</glyph>
<glyph name="tonos.cap" format="2">
	<advance width="600"/>
	<outline>
		<contour>
			<point x="299" y="378" type="line"/>
			<point x="362" y="678" type="line"/>
			<point x="271" y="690" type="line"/>
			<point x="233" y="390" type="line"/>
		</contour>
	</outline>
</glyph>
<glyph name="zero.0" format="2">
	<advance width="600"/>
	<outline>
		<contour>
			<point x="300" y="-12" type="curve" smooth="yes"/>
			<point x="443" y="-12"/>
			<point x="533" y="108"/>
			<point x="533" y="321" type="curve" smooth="yes"/>
			<point x="533" y="535"/>
			<point x="443" y="649"/>
			<point x="300" y="649" type="curve" smooth="yes"/>
			<point x="157" y="649"/>
			<point x="67" y="535"/>
			<point x="67" y="321" type="curve" smooth="yes"/>
			<point x="67" y="108"/>
			<point x="157" y="-12"/>
		</contour>
		<contour>
			<point x="300" y="62" type="curve" smooth="yes"/>
			<point x="218" y="62"/>
			<point x="158" y="139"/>
			<point x="158" y="321" type="curve" smooth="yes"/>
			<point x="158" y="503"/>
			<point x="218" y="575"/>
			<point x="300" y="575" type="curve" smooth="yes"/>
			<point x="382" y="575"/>
			<point x="442" y="503"/>
			<point x="442" y="321" type="curve" smooth="yes"/>
			<point x="442" y="139"/>
			<point x="382" y="62"/>
		</contour>
		<contour>
			<point x="408" y="107" type="line"/>
			<point x="477" y="128" type="line"/>
			<point x="192" y="534" type="line"/>
			<point x="123" y="513" type="line"/>
		</contour>
	</outline>
</glyph>
